<svg xmlns="http://www.w3.org/2000/svg" width="383.817" height="186.188" viewBox="0 0 383.817 186.188">
  <g id="Group_143" data-name="Group 143" transform="translate(-770.074 -585.813)">
    <path id="Intersection_4" data-name="Intersection 4" d="M420.8,142.187H400.1L362.384,34.508l27.25-6.8,24.636,80.518L443.33,14.31l33.272-8.3L428.715,142.187ZM420.8,142.187Zm-106.4,0L286.081,91.6l-28.418,50.585H225.339l42.872-71.68L261.742,59.62,318.9,45.359,303.953,70.508l42.871,71.68Zm-131.5,0L149.363,87.661l24.782-6.184L183.1,96V79.244l27.734-6.92v69.864Zm-86.914,0V100.98l27.93-6.969v48.177Z" transform="translate(674.087 585.813)" fill="#f5f5f6"/>
    <path id="Subtraction_3" data-name="Subtraction 3" d="M95.987,111.225V0h27.93l55.7,90.357-24.793,6.186-30.91-50.255v57.968l-27.928,6.969ZM183.1,89.49V0H210.83V82.57L183.1,89.49Zm83.947-20.947h0L226.316,0h32.129l27.636,49.707L313.718,0h32.129l-34.1,57.389-44.7,11.155ZM365.685,43.93,350.3,0h30.859l11.39,37.228-26.861,6.7Zm74.21-18.517v0L447.758,0h30.957l-6.062,17.239L439.9,25.413Z" transform="translate(674.087 585.813)" fill="#1670b8"/>
    <text id="NEXIVIL" transform="translate(770.891 759)" fill="#f5f5f6" font-size="30" font-family="Heebo-Light, Heebo" font-weight="300" letter-spacing="1.529em"><tspan x="0" y="0">NEXIVIL</tspan></text>
  </g>
</svg>
